<?xml version="1.0" encoding="utf-8"?>
<!-- Generator: Adobe Illustrator 19.1.0, SVG Export Plug-In . SVG Version: 6.00 Build 0)  -->
<svg version="1.1" id="Layer_1" xmlns="http://www.w3.org/2000/svg" xmlns:xlink="http://www.w3.org/1999/xlink" x="0px" y="0px"
	 viewBox="0 0 100 100" style="enable-background:new 0 0 100 100;" xml:space="preserve">
<style type="text/css">
	.st0{fill:#FFFFFF;stroke:#39B54A;stroke-miterlimit:10;}
	.st1{fill:#39B54A;stroke:#FFFFFF;stroke-miterlimit:10;}
	.st2{fill:#39B54A;stroke:#39B54A;stroke-miterlimit:10;}
</style>
<circle class="st0" cx="50" cy="50" r="50"/>
<path class="st1" d="M49.7,88L49.7,88c-5.6,0-10.2-4.6-10.2-10.2V20c0-5.6,4.6-10.2,10.2-10.2h0c5.6,0,10.2,4.6,10.2,10.2v57.8
	C59.9,83.4,55.3,88,49.7,88z"/>
<path class="st2" d="M76.5,58H23.9c-5.4,0-9.7-4.4-9.7-9.7v0c0-5.4,4.4-9.7,9.7-9.7h52.6c5.4,0,9.7,4.4,9.7,9.7v0
	C86.2,53.6,81.8,58,76.5,58z"/>
</svg>
